<svg width="26" height="26" viewBox="0 0 26 26" fill="none" xmlns="http://www.w3.org/2000/svg">
<path fill-rule="evenodd" clip-rule="evenodd" d="M12.9382 0C14.6679 0.0615519 16.4593 0.0615519 18.189 0.123096C19.7334 0.184639 21.1542 0.430828 22.5132 1.23093C24.2429 2.27723 25.293 3.81589 25.6637 5.78538C25.849 6.95476 25.9108 8.18569 25.9725 9.35508C26.0343 11.94 25.9725 14.525 25.9725 17.1099C25.9725 18.464 25.9108 19.818 25.4783 21.1105C24.6135 23.6339 22.8221 25.1725 20.2276 25.6649C19.0539 25.9111 17.8184 25.9111 16.6447 25.9726C14.0502 26.0342 11.5174 25.9726 8.92291 25.9726C7.56388 25.9726 6.20486 25.9111 4.90761 25.4803C2.37486 24.6186 0.830518 22.8338 0.336323 20.2488C0.0892317 19.0794 0.0892317 17.8485 0.0274567 16.6791C-0.0343209 14.0942 0.0274567 11.5092 0.0274567 8.92425C0.0274567 7.57023 0.0892317 6.21621 0.521648 4.92372C1.38649 2.40031 3.17793 0.861658 5.77243 0.369283C6.94615 0.123104 8.18163 0.123104 9.35533 0.0615519C10.529 0 11.7027 0 12.9382 0ZM23.6253 12.7402C23.5635 12.7402 23.6253 12.7402 23.6253 12.7402C23.5635 11.6939 23.5635 10.7091 23.5635 9.66284C23.5635 8.67811 23.5018 7.69335 23.3782 6.70861C23.1311 4.49293 21.8339 3.01581 19.6718 2.58499C18.5598 2.33881 17.3243 2.33881 16.2124 2.33881C13.9886 2.27726 11.8265 2.27726 9.60261 2.33881C8.49067 2.33881 7.37874 2.40034 6.32858 2.58499C4.47536 2.89272 3.17811 3.93901 2.62214 5.78541C2.43682 6.40088 2.37505 7.01634 2.31327 7.6318C2.2515 9.97058 2.2515 12.3093 2.2515 14.6481C2.2515 16.1252 2.31327 17.6639 2.43682 19.141C2.62214 21.3567 3.98117 22.8953 6.20504 23.2646C7.31696 23.4493 8.49067 23.5108 9.66438 23.5108C11.8265 23.5724 13.9886 23.5108 16.2124 23.5108C17.2008 23.5108 18.1892 23.4493 19.1776 23.3262C20.1042 23.2646 20.969 22.9569 21.7103 22.3414C22.9458 21.3567 23.3782 20.0642 23.44 18.5871C23.5635 16.7407 23.5635 14.7712 23.6253 12.7402Z" fill="#081420"/>
<path fill-rule="evenodd" clip-rule="evenodd" d="M19.6096 12.9861C19.6096 16.6789 16.6445 19.6331 12.9381 19.6331C9.2316 19.6331 6.26645 16.6789 6.26645 12.9246C6.26645 9.29332 9.29337 6.33911 12.9998 6.33911C16.6445 6.33911 19.6096 9.29332 19.6096 12.9861ZM12.9379 17.2944C15.2853 17.2944 17.2621 15.3249 17.2621 12.9862C17.2621 10.6474 15.2853 8.67792 12.9379 8.67792C10.5287 8.67792 8.61371 10.6474 8.61371 12.9862C8.55194 15.3249 10.5287 17.2944 12.9379 17.2944Z" fill="#081420"/>
<path d="M21.4022 6.03098C21.4022 6.89264 20.7227 7.6312 19.8579 7.6312C18.993 7.6312 18.2517 6.89264 18.3135 6.03098C18.3135 5.16933 18.993 4.49231 19.8579 4.49231C20.7227 4.49231 21.4022 5.16932 21.4022 6.03098Z" fill="#081420"/>
</svg>
